<svg xmlns="http://www.w3.org/2000/svg" xmlns:xlink="http://www.w3.org/1999/xlink" width="108.473" height="120" viewBox="0 0 108.473 120">
  <defs>
    <clipPath id="clip-path">
      <rect id="Rectangle_791" data-name="Rectangle 791" width="108.473" height="120" fill="#fff"/>
    </clipPath>
  </defs>
  <g id="Group_1592" data-name="Group 1592" clip-path="url(#clip-path)">
    <path id="Path_841" data-name="Path 841" d="M43.563,253.861a4.365,4.365,0,0,0,3.8-2.326,23.089,23.089,0,0,1-1.307-6.018c-.372-6.036,1.954-11.712,4.5-11.869,1.868-.112,3.361,1.653,3.533,4.513.458,7.521-2.045,10.655-3.3,13.368a4.446,4.446,0,0,0,3.666,2.83,2.453,2.453,0,0,0,1.562-.558,6.11,6.11,0,0,1-.254-1.806c0-4.357,2.8-8.028,5.23-8.028,1.93,0,3.049,2.547,3.049,4.233,0,1.989-1.682,3.61-4.168,5.168a2.975,2.975,0,0,0,1.931.744c3.548,0,5.407-4.295,6.78-8.218.251-.744.694-1.8,1.559-1.8,1.5,0,2.122,9.835,4.6,9.835,1.057,0,1.924-2.184,1.924-3.858,0-1.246-.434-1.37-.434-3.176,0-1.993,1.063-3.663,2.494-3.663.874,0,1.184.862,1.184,1.921,0,3.979-2.866,11.39-7.092,11.39-3.179,0-2.931-5.478-4.047-5.478-1.251,0-3,5.537-9.15,5.537a3.942,3.942,0,0,1-2.925-1.493,7.177,7.177,0,0,1-4.173,1.434c-2.3,0-3.3-2.364-4.227-2.364-1.124,0-2.364,2.424-6.1,2.424-2.99,0-3.483-3.979-4.543-3.979-.936,0-2.361,3.979-3.917,3.979-2.621,0-3.173-6.9-5.481-6.9-1.8,0-7.506,7-9.053,6.848a.917.917,0,0,1-.82-1.148c.088-.865.829-3.173,1.127-4.256.505-1.892.966-3.973,1.223-4.631a1.663,1.663,0,0,1,1.5-1.089c.28.024.369.546.454.971.313,1.541.75,3.111,1.246,3.111.874,0,3.76-5.537,5.437-5.537,2.06,0,2.305,8.716,5.106,8.716.939,0,1.62-1.119,2.24-2.494.065-2.308.691-5.6,2.553-5.6,1.307,0,1.933,2.922.995,5.478,0,3.049,2,3.793,3.3,3.793m49.785-7.467c-.767,3.2-3.105,7.91-6.594,7.91-.809,0-2.24-.313-2.24-1.125,0-.874,5.478-.992,5.478-5.168a3.876,3.876,0,0,0-3.548-3.734c-2.8,0-5.531,3.052-5.531,7.288,0,3.79,2.358,5.036,4.723,5.036,4.105,0,6.594-3.362,7.9-6.163.631,1.868.995,6.163,2.556,6.163.626,0,1.06-.31,1.81-1.989,1.863-4.174,3.669-8.967,6.163-8.967.927,0,.369,1.685,2.606,1.685a1.818,1.818,0,0,0,1.8-1.871c0-1.435-1.3-2.55-3.3-2.55-5.848,0-7.09,8.778-8.025,8.778-1.553,0-1.06-7.037-2.178-7.037-.995,0-1.491,1.192-1.624,1.745m-41.281-6.55c-.109-1.739-.531-2.527-1.464-2.462-1.24.071-1.812,3.976-1.559,8.073.162,2.671.558,3.087.933,3.061.682-.041,2.326-4.82,2.09-8.672m-10.124-3.657a1.821,1.821,0,0,0-1.927-1.674,2.476,2.476,0,0,0-2.179,2.8,1.827,1.827,0,0,0,1.875,1.871c1.363,0,2.358-1.559,2.231-2.993m19.357,12.7c0-1.06-.558-1.928-1.237-1.928-.566,0-1.871.617-1.871,2.61A3.846,3.846,0,0,0,59,252.187a3.229,3.229,0,0,0,2.3-3.3m24.336-2.11c1.3,0,1.679,1.549,1.366,2.485a3.994,3.994,0,0,1-3.173,2.305c-.369-.935-.557-4.79,1.807-4.79m-71.663-4.422a19.215,19.215,0,0,1-.841-2.778c-.31-2.075.776-3.447,1.78-3.76,1.116-.316,1.552.245,1.986,1.558.561,1.99.626,4.6.434,8.336-.242,5.1-2.8,11.266-9.144,11.139-5.478-.124-7.9-3.669-8.158-9.085a24.93,24.93,0,0,1,1.127-8.711c.558-1.927,1.057-2.618,2.8-2.993,1.373-.245,1.245,1.184.936,2.869a33.1,33.1,0,0,0-.744,9.77c.245,4.48,2.3,6.222,4.54,6.222,3.361.065,4.855-2.733,5.475-6.78a11.8,11.8,0,0,0-.186-5.788" transform="translate(0 -136.85)" fill="#fff"/>
    <path id="Path_842" data-name="Path 842" d="M207.078,46.848c.434,3.136,5.189,7.364,6.473,7.269.862-.077,1.193-4.094,1.193-7.269,0-1.817.1-3.236-.856-3.567-1.523,3.076-5.517,3.7-6.809,3.567m.271-1.387c3.43,0,6.57-2.741,6.57-5.149a2.011,2.011,0,0,0-1.886-2.212,1.438,1.438,0,0,1,.331,1.058c0,1.812-2.771,3.831-5.776,3.831a1.261,1.261,0,0,0-1.42,1.155c0,.922.891,1.317,2.181,1.317m-.732-3.731A1.427,1.427,0,0,1,205.132,41c-.3-.592-.2-1.554-.758-1.976a5.912,5.912,0,0,0,1.62.16c1.487,0,2.907-1.018,4-1.018a.853.853,0,0,1,.954.922c0,1.454-2.931,2.642-4.327,2.642" transform="translate(-119.706 -22.316)" fill="#fff"/>
    <path id="Path_843" data-name="Path 843" d="M27.559,98.661c1.121,0,.894-6.865,2.709-6.865.425,0,.558.428.558.953,0,1.556-.756,3.834-.756,5.089,0,.627.159.824.461.824.793,0,2.181-7.565,3.533-7.565.434,0,.628.435.628.863,0,1.587-2.013,6.144-2.013,7.428,0,.2.062.363.227.363.827,0,2.48-3.563,3-5.348.3-.922.694-1.421,1.06-1.421.33,0,.628.362.628,1.126,0,1.781-1.656,5.979-3.1,8.784-1.124,2.178-2.872,5.319-2.872,7.063a3.5,3.5,0,0,0,1.45,2.944c-2.113-.133-2.975-.331-3.767-1.982-3.53,7.031,6.505,6.337,3.067,12.58-.623-1.122-5.573-2.276-5.573-8.817,0-5.65,4.95-8.954,4.95-11.3a1.5,1.5,0,0,0-.593-1.218c-1.089-.928-1.124-1.685-1.981-1.685-.631,0-1.39,1.455-.6,2.739.266.428.5.691.5,1.092,0,.921-1.455,3.4-2.474,3.4s-1.818-2.544-1.818-6.638c0-3.635.824-7.3,1.848-7.3.3,0,.4.2.4.465,0,.428-.13,1.282-.13,2.74,0,1.553.363,1.682.658,1.682" transform="translate(-14.518 -53.357)" fill="#fff"/>
    <path id="Path_844" data-name="Path 844" d="M49.28,110.023c1.387,0,2.541-1.03,2.541-3.3v-3.368a5.807,5.807,0,0,1,.959-3.771,6.1,6.1,0,0,0-.1,1.324c0,2.842,1.585,4.792,1.585,7.532,0,1.02-.3,1.582-1.092,1.582-.756,0-.691-.693-.856-.693-.13,0-.328.426-.328.888A1.782,1.782,0,0,0,53.867,112a2.265,2.265,0,0,0,2.148-2.31c0-2.971-2.311-6.271-2.311-9.444a7.429,7.429,0,0,1,.664-3.043c0,6.573,5.581,11.365,5.581,14.1a1.106,1.106,0,0,1-1.157,1.128,1.08,1.08,0,0,1-1.124-1.061c0-.229-.036-.294-.133-.294a1.69,1.69,0,0,0-.791,1.52,2.47,2.47,0,0,0,2.542,2.409A2.926,2.926,0,0,0,62.193,112c0-3.464-6.771-8.719-6.771-14.329a7.784,7.784,0,0,1,.859-3.7c-4.36,2.805-5.712,6.539-5.712,9.805,0,2.842-.1,4.262-1.553,4.262-.758,0-.956-.694-1.219-.694-.2,0-.3.593-.3.761a1.811,1.811,0,0,0,1.786,1.913" transform="translate(-27.818 -55.043)" fill="#fff"/>
    <path id="Path_845" data-name="Path 845" d="M179.491,45.373c1.455,0,2.544-.658,2.544-1.058,0-.131-.2-.23-.626-.23a17.634,17.634,0,0,1-2.91-.3c-1.39-.23-2.447-.756-2.839-.756-.133,0-.2.065-.2.165,0,.859,1.588,2.175,4.035,2.175m-7.2-4.2c.423-.279,2.285.17,4.69-1.021a1.776,1.776,0,0,1,.855-.233c1.157,0,.862,1.324,1.922,1.324.821,0,1.883-.692,2.512-.692.983,0,2.405,3.1,2.405,4.553,0,1.688-2.535,2.709-5.549,2.709-4.386,0-7.034-3.831-7.034-6.3a.361.361,0,0,1,.2-.335" transform="translate(-100.797 -23.384)" fill="#fff"/>
    <path id="Path_846" data-name="Path 846" d="M49.467,161.129c-1.092.268-2.842,1.981-2.842,4.693,0,3.238,3.468,8.226,9.182,8.226,4.82,0,6.01-3.335,6.01-5.584,0-4.988-3.072-8.486-7.063-8.486a3.985,3.985,0,0,0-4.132,3.929,5.468,5.468,0,0,0,5.582,5.452,2.782,2.782,0,0,0,2.937-2.839,3.649,3.649,0,0,0-3.332-3.533A.963.963,0,0,0,54.783,164c0,.791,1.089,1.591,2.441,1.591a1.822,1.822,0,0,0,.732-.133.781.781,0,0,1,.1.4c0,.756-.732,1.225-1.851,1.225a3.239,3.239,0,0,1-3.306-3.241c0-1.186,1.027-2.049,2.509-2.049,2.943,0,4.693,2.609,4.693,5.216,0,2.349-1.29,3.7-3.929,3.7-5.287,0-7.86-4.758-6.7-9.584" transform="translate(-27.309 -93.702)" fill="#fff"/>
    <path id="Path_847" data-name="Path 847" d="M99.827,185.457a1.322,1.322,0,1,0,1.319-1.319,1.328,1.328,0,0,0-1.319,1.319m2.556,6.6a15.515,15.515,0,0,0,2-.133c.5,0,.529.3.529.5,0,.723-1.621,1.617-4.492,1.617a2.924,2.924,0,0,1-3.008-1.883,13.039,13.039,0,0,1-6.635,2.016c-6.768,0-8.486-2.943-10.6-3.9-1.62-.726-4.1.691-7.562-3.173a8.424,8.424,0,0,0,1.582.133c3.04,0,4.654-1.484,4.654-3.866a7.28,7.28,0,0,0-.068-.915,6.538,6.538,0,0,1,3.54,4.746c.065.336,1.423.628,2.278.628a2.682,2.682,0,0,0,2.937-2.441c3.964-.328,6.641-2.671,7.2-5.65a7.868,7.868,0,0,1,3.433,2.412,5.962,5.962,0,0,1,1.983-.3,12.568,12.568,0,0,1,3.663.632c.065-.434.133-.965.8-.965.986,0,.723,1.095,1.051,1.721.165.327,1,.525,1,1.189a.845.845,0,0,1-.865.856,1.53,1.53,0,0,1-.4-.062c-.655.227-.691,4.985-3.471,4.985-2.042,0-3.929-1.688-4.752-3.793a1.408,1.408,0,0,0-1.19-1.03c-.528,0-.823.1-1.45.791a11.475,11.475,0,0,1-8.424,3.633c-1.121,0-2.013-.1-2.243-.1-.13,0-.13.029-.13.071,0,.227,1.119,1.119,3.559,1.119,5.815,0,7.237-3.27,8.159-3.27a.756.756,0,0,1,.755.532,6.488,6.488,0,0,0,6.163,3.89" transform="translate(-42.533 -105.279)" fill="#fff"/>
    <path id="Path_848" data-name="Path 848" d="M181.391,153.842c-.694,0-4.531,5.121-7,5.121-.593,0-1.086-1.121-1.086-1.975,0-.469.3-.8,1.349-1.027,5.682-1.293,4.425-5.552,9.277-5.552a5.541,5.541,0,0,1,5.65,5.912c0,4.36-6.2,9.77-7.131,9.77-.759,0-1.585-1.086-1.585-1.815,0-.224.1-.522.762-.788,3.164-1.257,4.98-4.165,4.98-5.646a.588.588,0,0,0-.593-.664c-.561,0-2.964,5.484-5.644,5.484-1.85,0-3.733-1.685-3.733-2.473,0-1.325,5.354-3.769,5.354-5.617,0-.7-.331-.729-.6-.729m3.562-2.049c-.464,0-.959.366-.959,1.263a2.1,2.1,0,0,0,1.192,1.812,2.065,2.065,0,0,0,.954.263c.957,0,1.72-.263,1.72-1.063,0-1.013-1.488-2.276-2.907-2.276" transform="translate(-101.507 -88.098)" fill="#fff"/>
    <path id="Path_849" data-name="Path 849" d="M35.337,47.818A1.322,1.322,0,1,0,36.662,46.5a1.331,1.331,0,0,0-1.325,1.317m-1.712-2.975a1.321,1.321,0,1,0,1.319-1.315,1.328,1.328,0,0,0-1.319,1.315M32.435,53.9a3.151,3.151,0,0,0-2.344,2.774,1.944,1.944,0,0,0,2.078,1.953,2.143,2.143,0,0,0,1.284-.334A3.855,3.855,0,0,1,32.2,55.415a4.442,4.442,0,0,1,.233-1.52m-8.094.466a3.118,3.118,0,0,0-.027.5c0,1.548.824,2.41,1.91,2.41a3.567,3.567,0,0,0,2.641-1.588,6.873,6.873,0,0,1-1.186.1,3.975,3.975,0,0,1-3.339-1.416M23.185,57.3c0,2.51.761,3.7,2.119,3.7,1.051,0,2.474-.764,4.159-2.217a14.469,14.469,0,0,1-3.173.5c-1.186,0-2.113-.461-3.105-1.982m8.557-13.212a6.448,6.448,0,0,0,.3-1.909c0-1.588-.729-4-2.972-4a2.2,2.2,0,0,0-2.214,2.243c0,2.612,2.612,3.663,4.891,3.663m-2.81,8.324a2.73,2.73,0,0,1-2.278-2.577c0-.658.493-1.481.862-1.481.13,0,.2.1.227.327a3.77,3.77,0,0,0,2.25,3c.1.066.165.1.165.17,0,.225-.628.558-1.225.558m3.037-4.026c.234.308.865.691.865.93,0,.461-.269,1.054-.8,1.054-1.157,0-2.078-1.753-2.078-2.739,0-.633.36-.7.856-.7a.785.785,0,0,1,.493.13c.3.165.3.824.661,1.325m-7.759,4.094a.76.76,0,0,0-.1.363.708.708,0,0,0,.626.629c.266,0,.431-.068.567-.068.788,0,1.677.559,2.969.559a6.33,6.33,0,0,0,2.775-.79,6.887,6.887,0,0,0,3.3-4.622c0-.632-.507-.546-.923-1.128s-.263-1.08-.532-1.353c-.153-.155-.626-.161-1.219-.227a6.3,6.3,0,0,0-.729-.036,6.734,6.734,0,0,0-3.834,1.055c-2.863,1.829-2.441,4.853-2.9,5.617m10.965-1.322a6.287,6.287,0,0,0-1.482,3.8c0,1.78,1.086,3.274,2.772,3.274,1.617,0,2.376-1.39,2.376-2.813,0-2.211-2.016-3.766-3.666-4.259m-7.066-6.34a3.989,3.989,0,0,1-2.146.723A2.481,2.481,0,0,1,23.418,43a2.78,2.78,0,0,1,1.751-2.608,3.534,3.534,0,0,0-.03.561,3.837,3.837,0,0,0,2.97,3.864" transform="translate(-13.58 -22.363)" fill="#fff"/>
    <path id="Path_850" data-name="Path 850" d="M158.377,69.216a1.386,1.386,0,1,0,1.385-1.383,1.4,1.4,0,0,0-1.385,1.383m.1,4.162a1.553,1.553,0,1,0,1.556-1.55,1.554,1.554,0,0,0-1.556,1.55m-4.752,2.81A2.279,2.279,0,1,0,156,73.908a2.284,2.284,0,0,0-2.279,2.28m1.219-4.661a1.319,1.319,0,1,0,1.322-1.322,1.325,1.325,0,0,0-1.322,1.322m-4.328,2.648a1.321,1.321,0,1,0,1.317-1.325,1.324,1.324,0,0,0-1.317,1.325m3.4-7.73a2.116,2.116,0,1,0,2.119-2.113,2.13,2.13,0,0,0-2.119,2.113m2.479-4.064a1.259,1.259,0,1,0,1.258-1.257,1.259,1.259,0,0,0-1.258,1.257m-5.971,3.17a1.252,1.252,0,1,0,1.246-1.254,1.248,1.248,0,0,0-1.246,1.254m-.171,4.293a2.014,2.014,0,1,0,2.013-2.01,2,2,0,0,0-2.013,2.01m-4.159,2.112a1.882,1.882,0,1,0,1.88-1.879,1.9,1.9,0,0,0-1.88,1.879m1.119-4.656a1.322,1.322,0,1,0,1.322-1.318,1.329,1.329,0,0,0-1.322,1.318m11.594,10.173a1.269,1.269,0,0,1,1.251-1.219,1.255,1.255,0,1,1-1.251,1.219" transform="translate(-85.628 -35.801)" fill="#fff"/>
    <path id="Path_851" data-name="Path 851" d="M164.9,183.066c.162,0,.363.094.363.693a2.887,2.887,0,0,1-1.514,2.438,6.335,6.335,0,0,1-3.6,1.057,7.809,7.809,0,0,0,.463-2.409,6.411,6.411,0,0,0-.065-.756h.431a7.477,7.477,0,0,0,3.926-1.024m.269-3.27a1.235,1.235,0,0,0,.327-.959v-.759c0-.959-1.452-1.52-3.436-1.52-2.412,0-3.7,1.092-3.7,1.553v1.517c0,.628,1.455,1.257,3.238,1.257a5.556,5.556,0,0,0,3.569-1.089m1.712.36a9.71,9.71,0,0,1-6.2,2.149,8.1,8.1,0,0,1-2.842-.564c-.331,0-.7.331-1.06.759a7.463,7.463,0,0,0-1.809,4.525,2.7,2.7,0,0,0,2.934,2.639c6.184,0,10.8-3.858,10.8-7,0-1.78-1.057-2.509-1.818-2.509" transform="translate(-90.766 -103.414)" fill="#fff"/>
    <path id="Path_852" data-name="Path 852" d="M161.209,104.532c0,.825.266,1.781,1.092,1.781.694,0,1.287-1.057,1.287-2.212,0-1.318-.23-2.348-.23-2.872,0-.232.1-.331.23-.331.5.034.962,1.39,1.493,1.39.594,0,1.476-1.094,1.839-1.094.1,0,.13.13.13.165,0,.493-.756,1.585-.756,2.013,0,.363,1.916.428,1.916.764,0,.494-2.01.494-2.97.924-.923.4-1.488.892-1.488,1.553s.665.79,1.588.79c2.211,0,3.758-1.187,4.256-1.187a.151.151,0,0,1,.16.162c0,.332-1.119,1.419-1.119,1.92,0,.559,2.051,1.21,2.013,1.546-.029.1-.162.131-.393.131-.362,0-.923-.1-1.358-.1a.766.766,0,0,0-.593.165c-.23.263.068,2.016-.4,2.016-.431,0-1.553-3.9-4.091-3.9-.363,0-.629.3-.629.8,0,1.315,1.29,2.838,2.515,3.562.554.36,1.478.729,1.478.927,0,.394-2.1.033-2.1.691,0,.6.26,1.493.26,2.016,0,.165-.032.363-.233.363-.392,0-1.355-1.812-1.816-1.812-.395,0-1.254,1.086-1.62,1.086a.183.183,0,0,1-.165-.2c0-.763,1.225-2.475,1.225-4.163,0-.791-.1-2.506-1.06-2.506-.79,0-1.685,1.25-2.081,2.506-.231.726-.065,3.538-.593,3.538-.5,0-.369-1.883-1.027-1.883-.487,0-1.547.893-1.909.893a.118.118,0,0,1-.13-.1c0-.4.953-1.684.953-1.948,0-.5-2.178-.561-2.178-.956,0-.236.856-.4,1.653-.533,1.679-.294,4.156-1.513,4.156-3.232,0-1.917-1.848-2.74-3.067-3.535-.629-.4-1.319-.726-1.319-.989s.791-.262,1.125-.262c.493,0,.98-.036.98-.434,0-.3-.065-.891-.065-1.352,0-.328.035-.593.171-.593.487,0,1.186,1.614,1.514,1.614.526,0,1.261-1.316,1.751-1.316.165,0,.233.1.233.4,0,1.219-.628,2.606-.628,3.8m-15.753-9.674c.363,2.8,4.135,1.387,4.135,4.783,0,.495-.133,1.224-.133,1.849,0,.732.065,1.358.62,1.358s.694-.4.694-.924-.133-1.19-.133-1.553a1.28,1.28,0,0,1,1.325-1.423c1.251,0,2.213,1.29,4.1,1.29-.431,2.115-4.794,1.548-4.794,3.862,0,1.155,1.157,1.421,1.916,1.421.7,0,.93-.1.93-.692,0-.331-.065-.692-.065-.931a.261.261,0,0,1,.263-.263c.723,0,4.286,2.711,4.286,3.536,0,.757-3.761,1.52-4.85,1.52a.352.352,0,0,1-.4-.36c0-.233.561-.928.561-1.325,0-.295-.5-.493-1.815-.493-.629,0-1.089.067-1.089.561,0,.894,1.455,1.982,1.455,2.8,0,.661-.4,1.063-1.455,1.063-.9,0-2.246-.7-2.246-1.852,0-.927.956-1.849.956-2.41,0-.166-.124-.428-.525-.428-1.219,0-1.552,3.233-5.882,3.595a3.31,3.31,0,0,0,1.293-2.739c0-.694-.165-1.258-.165-2.013,0-.993.46-1.491,1.119-1.491,1.225,0,1.818,1.718,2.615,1.718a.952.952,0,0,0,.892-.989c0-2.512-4.823-2.146-4.823-5.679a8.216,8.216,0,0,1,1.219-3.8" transform="translate(-83.939 -55.56)" fill="#fff"/>
    <path id="Path_853" data-name="Path 853" d="M141.789,139.429a.793.793,0,0,0,.8.827.907.907,0,0,0,.853-.992c0-.69-.626-1.653-1.219-1.653-.268,0-.171.4-.236.826-.032.332-.2.727-.2.992m-1.718-4.392c3.472.658,5.354,3.27,5.354,5.714a2.984,2.984,0,0,1-2.9,3.232,2.791,2.791,0,0,1-2.9-3c0-1.389,1.08-2.837,1.08-4.265a2.532,2.532,0,0,0-.629-1.679m-4.389,5.614a1.331,1.331,0,0,1,.431.995c0,.493-.233,1.021-.233,1.585a1.454,1.454,0,0,0,1.455,1.479,1.54,1.54,0,0,0,1.559-1.582c0-1.257-1.3-2.477-3.211-2.477m10.936-2.11a1.98,1.98,0,0,1,.327,1.052c0,.928-.626,1.784-.626,2.738a1.969,1.969,0,0,0,2.081,1.986,2.282,2.282,0,0,0,2.275-2.379c0-1.747-1.588-3.234-4.058-3.4m-10.139-1.753c1.52.2,1.88.729,1.88,1.154,0,.73-.661.959-1.29.959-.46,0-.986-.1-1.553-.1a2.5,2.5,0,0,0-2.048.859,1.122,1.122,0,0,1,1.06,1.025c0,1.916-5.319.331-5.319,5.248,0,2.61,2.706,5.449,6.8,5.449,2.119,0,3.475-.691,3.475-1.488,0-.626-1.128-.2-1.128-.723,0-.23.4-.661.4-1.027,0-.159-.13-.458-.4-.458-.59,0-1.718.957-4,.957-1.783,0-3.533-1.021-3.533-2.409,0-.3.133-.466.328-.466s.466.136.7.136c.192,0,.227-.136.227-.5s0-1.39.629-1.39,1.815,2.32,6.378,2.32c1.514,0,4.451-.3,5.543-1.29a8.586,8.586,0,0,1-8.819,8.418,9.319,9.319,0,0,1-9.478-9.513,9.721,9.721,0,0,1,9.776-9.639c1.449,0,2.677.493,2.677,1.12,0,.862-2.148.334-2.311,1.355" transform="translate(-73.998 -78.669)" fill="#fff"/>
    <path id="Path_854" data-name="Path 854" d="M77.713,45.384c2.176,0,3.168,1.886,3.168,4,0,.921-.263,2.279-.694,2.279s-.36-.757-.428-1.455c-.062-.888-.23-1.086-.531-1.086-.558,0-.921,1.317-.921,2.541,0,.762.13,1.618.723,1.618a1.2,1.2,0,0,0,.829-.363,2.954,2.954,0,0,1-2.845,2.841c-2.9,0-3.991-3.4-4.325-5.384-1.75,1.848-3.364,3.2-6.275,3.2a3.716,3.716,0,0,1-3.928-3.865c0-.562.2-2.015.891-2.015.826,0,.1,2.711,1.721,2.711.4,0,1.121-.333,1.514-1.421a6.109,6.109,0,0,0,.369-1.948c0-.893-.2-1.455-.862-1.455a2.6,2.6,0,0,0-1.488.66,4.976,4.976,0,0,1,4.826-3.593c2.606,0,3.991,2.31,3.991,4.885a6.262,6.262,0,0,1-.094,1.122c1.121-1.846,2.674-3.27,4.359-3.27m-2.541,3.9c0-.563-.138-.694-.268-.694-.331,0-.694.394-1.219,1.283.065,1.193.263,1.721.593,1.721.363,0,.894-1.16.894-2.31m-4.528,1.355c.366,0,.829-.394,1.686-1.355a8.6,8.6,0,0,0,.065-1.327c0-.657-.263-1.384-.659-1.384-.995,0-1.488,2.643-1.488,3.335,0,.392.2.73.4.73m5.384,2.936c.824,0,1.75-3.169,1.75-5.152,0-.431-.065-.89-.263-.89-.7,0-1.853,3.27-1.853,5.047,0,.7.169,1,.366,1m-8.09-1.815c1.124,0,2.408-6.079,2.408-7.1,0-.261-.1-.464-.327-.464-1.022,0-2.444,5.782-2.444,7.072,0,.23.065.5.363.5" transform="translate(-36.599 -24.98)" fill="#fff"/>
    <path id="Path_855" data-name="Path 855" d="M70,70.691c-1.423,0-1.488,1.721-1.488,5.189-1.054-2.28-2.8-4.725-4.852-4.725-1.39,0-1.916.93-1.916,2.538a6.546,6.546,0,0,0,.094,1.127,1.257,1.257,0,0,1,1.355-.791A6.03,6.03,0,0,1,67.456,76.6a22.472,22.472,0,0,0-3.6-.461,4.125,4.125,0,0,0-1.751.3,4.385,4.385,0,0,0-2.249,3.995,6.814,6.814,0,0,0,.1,1.092c1.151-2.581,4.226-3.737,6.207-3.737a5.574,5.574,0,0,1,.921.071,5.4,5.4,0,0,0-1.313,3.629c-.032.529-.233.564-.6.564,0,1.087.862,2.707.862,3.529a.7.7,0,0,1-.328.633c0,1.449,1.45,2.509,1.45,3.43a.79.79,0,0,1-.168.531c.1.6,1.7,1.594,1.907,2.1.257.608.541.711.7.711.567,0,1.452-.658,1.452-1.256a.786.786,0,0,0-.3-.527,4.921,4.921,0,0,1-1.222-2.115A.609.609,0,0,1,68.9,88.6c-.183-.686-.192-1.96-.457-2.718-.425-.1-.623-.263-.623-1.157,0-.428.263-2.113.263-2.709a.471.471,0,0,1-.464-.529c0-1.055,1.054-1.886,1.352-3.235a4.858,4.858,0,0,1,2.34,4.062,8.606,8.606,0,0,1-.227,1.883c1.387-.693,3.468-1.718,3.468-3.8,0-1.223-.563-2.578-4.292-3.108a11.7,11.7,0,0,1,3.831-.657c2.11,0,3.332.657,3.6,2.146a4.082,4.082,0,0,0,.764-2.115A2.793,2.793,0,0,0,75.375,74c-2.013,0-3.8,1.054-5.709,2.344.856-1.783,1.449-2.838,2.509-2.838a2.431,2.431,0,0,1,.493.068c-.4-1.457-1.88-2.879-2.671-2.879" transform="translate(-35.058 -41.405)" fill="#fff"/>
    <path id="Path_856" data-name="Path 856" d="M210.144,128.159c1.65,0,2.97,2.153,2.97,4.661a10.377,10.377,0,0,1-3.492,7.559c-.038-4.451-5.49-3.035-5.49-6.268a2.193,2.193,0,0,1,2.184-2.314,3.331,3.331,0,0,1,2.476.893,2.937,2.937,0,0,1-.894-2.119,2.249,2.249,0,0,1,2.246-2.412" transform="translate(-119.564 -75.065)" fill="#fff"/>
    <path id="Path_857" data-name="Path 857" d="M151.233,42.291a2.451,2.451,0,0,0-1.712-.664,2.674,2.674,0,0,0-2.644,1.948,3.071,3.071,0,0,1-.23-1.121,3.192,3.192,0,0,1,3.41-3.232,5.794,5.794,0,0,1,3.229,1.119c.333,0,.664-.332.927-.332.36,0,.36.565.36.961,0,1.322-.593,3.6-2.081,4.424a3.341,3.341,0,0,0-1.644-1.585.516.516,0,0,1-.331-.5,1.336,1.336,0,0,1,.718-1.021M146.251,44.7a3.506,3.506,0,0,0,2.541,1.189c.369,0,.8-.094,1.03-.094.292,0,.5.128.5.357a2.082,2.082,0,0,1-.729,1.291,3.289,3.289,0,0,0,1.29.229,3.882,3.882,0,0,0,4.02-4.159,4.39,4.39,0,0,1,.634,2.113c0,3.6-2.647,4.984-5.082,4.984a7.2,7.2,0,0,1-2.583-.521c-.623,0-.593,1.249-1.024,1.219-.759-.131-1.45-1.818-1.45-3.6a5.264,5.264,0,0,1,.856-3.006" transform="translate(-85.161 -22.973)" fill="#fff"/>
    <path id="Path_858" data-name="Path 858" d="M46.789.768c0-.2-.995-.4-2.346-.4-2.149,0-1.848,1.787-3.5,1.787C39.224,2.152,39.652.3,37.474.3c-1.319,0-2.541.232-2.541.536,0,.392,1.549.229,1.549,1.316,0,1.157-3.335,1.486-3.335,2.177,0,.232.263.335.6.335.726,0,1.88-.335,2.71-.335.461,0,.892.1.892.533,0,.824-1.786,2.313-1.786,2.972,0,.2.162.263.328.263.664,0,1.786-1.682,2.846-1.682,1.75,0,.59,3.731,1.549,3.731.992,0,.564-3.669,1.977-3.669,1.16,0,2.019,2.541,2.81,2.541a.372.372,0,0,0,.363-.392c0-.7-.989-2.117-.989-3.039a.815.815,0,0,1,.924-.831c.758,0,1.786.469,2.343.469.2,0,.4-.065.4-.3,0-.794-2.937-1.651-2.937-2.674S46.789,1.228,46.789.768m7.759,3.365c0,.6,2.078,1.883,3.037,1.883.558,0,.723-.759.723-1.554,0-.987-.428-1.022-1.284-1.022-1.092,0-2.477.3-2.477.694m3.433,6.535c0-1.974-5.36-5.579-5.419-7.128a.6.6,0,0,1,.192-.407c.921-.968,4.731-1.674,4.731-2.5C57.486.2,56.691.2,56.3.2c-3.07,0-7.559,1.127-7.559,2.211,0,1.128,4.026,3.873,4.026,5.224,0,.36-.228.491-.6.491-1.119,0-3.566-1.352-4.719-1.352-.526,0-.723.365-.723.892,0,1.586,1.877,4.594,1.877,5.483,0,.094-.029.23-.165.23-.593,0-3.4-3.3-4.389-3.3-.366,0-.4.5-.4,1.225v1.12c0,.763-.033,1.225-.4,1.225-.856,0-1.258-2.409-2.081-2.409-.855,0-1.027,4.292-1.851,4.292-.956,0-.13-4.728-1.057-4.728-1.018,0-2.181,3.14-2.907,3.14-.262,0-.327-.263-.327-.493,0-.961.561-2.509.561-3.437,0-.459-.133-.725-.528-.725-1.024,0-3.267,1.653-4.123,1.653-.136,0-.3-.068-.3-.2,0-.791,3.6-3.3,3.6-4.422,0-1.089-4.953-.36-4.953-1.619,0-1.057,3.536-2.149,3.536-3.236C32.819.5,28.625.071,27,.071c-1.948,0-3,.229-3,.791,0,.862,4.427,1.124,4.427,1.88,0,.732-4.587,2.68-4.587,3.8,0,.989,6.47.062,6.47,1.089,0,1.119-5.652,5.974-5.652,7.59,0,.367.268.533.635.533,1.712,0,6.169-3.272,7.394-3.272.428,0,.46.533.46.988,0,.863-.292,2.184-.292,3.142,0,.759.192,1.288.853,1.288,1.225,0,2.344-2.08,3.173-2.08,1.057,0,.428,6.111,2.013,6.111,1.352,0,1.919-6.607,2.772-6.607s1.555,1.912,2.349,1.912c.989,0,.529-3.334,1.585-3.334,1.155,0,4.454,3.964,5.942,3.964.464,0,.626-.361.626-.829,0-1.749-2.441-5.708-2.441-6.967,0-.329.1-.422.46-.422,1.29,0,5.056,1.778,6.839,1.778.593,0,.956-.328.956-.764M27.834,8.755c0,.664-2.515,2.875-3.4,2.875-.328,0-.431-.393-.431-.759a2.966,2.966,0,0,1,.658-1.88,3.67,3.67,0,0,1,2.181-.6c.461,0,1,.1,1,.36m24.268,3.4c0,1.157,4.13,6.8,4.923,6.8.659,0,1.155-1.156,1.155-2.146a1.356,1.356,0,0,0-.2-.725c-.593-.826-4.787-4.132-5.714-4.132a.188.188,0,0,0-.166.2" transform="translate(-13.964 -0.042)" fill="#fff"/>
    <path id="Path_859" data-name="Path 859" d="M202.015,2.243a.825.825,0,1,0,.829-.823.817.817,0,0,0-.829.823m-5.384,7.3c0-2.344-5.608-2.943-5.608-3.47,0-.428,3.134-1.153,4.749-1.191-2.477-3.164-6-2.838-6-3.4,0-.329,2.641-.993,5.083-.993,2.045,0,3.964.462,3.964,2.011,0,.864-.694,1.757-.694,3.076a1.221,1.221,0,0,0,1.317,1.358c1.027,0,1.26-1.095,1.26-2.252,0-.955-.169-1.679-.169-2.146A2.2,2.2,0,0,1,202.845.227c1.119,0,1.381.493,3.035.493a2.536,2.536,0,0,0-1.216,1.954c0,1.384.885,2.344.885,5.183,0,5.215-4.885,7.066-10.862,7.066a34.262,34.262,0,0,1-5.115-.4c-.268-.03-.33-.1-.33-.264,0-.426,2.343-.66,2.343-2.772a16.767,16.767,0,0,0-.263-1.917.257.257,0,0,1,.263-.263c.5,0,1.491,1.916,3.332,1.916a1.572,1.572,0,0,0,1.715-1.685M202.213,6.2c0,2.937-2.143,5.188-6.012,5.815.431.029.829.029,1.225.029,4.516,0,6.175-2.042,6.175-3.763A2.1,2.1,0,0,0,202.213,6.2" transform="translate(-110.842 -0.133)" fill="#fff"/>
    <path id="Path_860" data-name="Path 860" d="M194.848,84.82a19.665,19.665,0,0,1,2.273-4.591c-1.086-.561-3.958-1.75-3.958-3.7,0-2.276,2.836-4.057,3.429-4.057.257,0,.331.225.331.66,0,1.188-.563,3.105-.563,4.126,0,.924.593,1.818,1.121,1.818.564,0,2.113-1.984,2.113-3.932a4.454,4.454,0,0,0-4.023-4.56c-.888,0-2.506,1.461-6.307,1.461-7.1,0-8.716-7.039-8.716-10.106,0-.134.027-.17.065-.17a5.008,5.008,0,0,0,3.1.86c1.16,0,2.217-.295,3.9-.295,3.952,0,5.711,2.736,8.152,6.239,1.482.923,5.018,2.41,5.018,6.6,0,3.7-3.938,5.748-4.888,9.709,1.517-.167,2.411-2.875,3.964-2.875.791,0,1.154.632,1.154,1.621a7.168,7.168,0,0,1-2.408,4.982,2.172,2.172,0,0,0,.033-.493c0-.922-.366-2.246-1.423-2.246-1.647,0-2.172,1.784-3.1,3.269-.953-3.366-2.243-6.409-4.554-8.257-2.34-1.878-6.372-.859-6.372-4.292,0-.924.59-2.242.59-3.3a1.567,1.567,0,0,0-.263-.962c3.173,1.191,2.048,3.306,4,5.484,1.213,1.39,4.583,2.713,6.538,8.421a7.513,7.513,0,0,0,.058-.889c0-4.892-6.464-9.678-7.025-11.662,3.755.431,4.418,1.358,6.2,6.309.363,1.023,1.555,3.567,1.555,4.823M193.987,68.8c0-.691-1.75-.756-1.916-2.706-.033-.3-.133-.826-.5-.826-.59,0-.13,1.815-.791,1.815-1.514,0-2.013-2.972-2.574-2.972-.13,0-.286.1-.286.5,0,.363.065.592.065,1.024s-.1.726-.5.726c-.894,0-1.686-2.078-2.45-2.078a.3.3,0,0,0-.327.26c0,.4.658,1.128.658,1.491,0,.791-2.149.362-2.149,1.027,0,.29.3.393.7.393.693,0,1.783-.3,2.346-.3.331,0,.829.068.829.495,0,.468-1.193,1.061-1.193,1.489,0,.2.2.3.363.3.892,0,2.47-1.551,3.6-1.551.2,0,.691.1.691.4,0,.43-1.119,1.187-1.119,1.815,0,.161.1.363.3.363.593,0,1.384-1.551,2.512-1.551.425,0,1.056.162,1.387.162.263,0,.363-.162.363-.263" transform="translate(-105.751 -36.178)" fill="#fff"/>
    <path id="Path_861" data-name="Path 861" d="M148.325,12.839c.532,0,.631,1.291.729,2.049.068.4.133.435.3.435.4,0,1.025-1.522,1.443-1.522.632,0,2.317,1.75,5.124,1.75a7.528,7.528,0,0,0,7.763-7.76C163.685,3,160.315.2,155.66.2c-2.214,0-3.834,1.089-4.693,1.089-.523.032-1.32-1.287-1.715-1.287-.163,0-.328.323-.328.891,0,.362,0,1.514-.4,1.514-.794,0-3.864-2.271-3.864-1.449,0,.757,2.045,3.067,2.045,3.666s-2.016,1.154-2.016,1.556c0,.723,2.149.856,2.149,1.777S144.6,9.612,144.6,10.3c0,.561,2.244.171,2.244.863s-1.65,3-1.65,3.666c0,.158.032.158.166.158.626,0,2.509-2.146,2.969-2.146m.959-5.41c0-.363-1.29-1.057-1.29-1.455,0-.062.065-.1.168-.1.363,0,.991.133,1.484.133.437,0,.5-1.848.824-1.848.23,0,.626,1.75.995,1.75.428,0,1.216-.5,1.552-.5.062,0,.133.033.133.1,0,.23-.829,1.126-.829,1.389,0,.293,1.848.658,1.848.921,0,.331-1.88.3-1.88.6,0,.233.691,1.157.691,1.455,0,.065-.033.1-.1.1-.263,0-1.281-.459-1.579-.459-.369,0-.954,1.349-1.252,1.349-.1,0-.162-.127-.162-.3l-.071-1.319c0-.13-.062-.268-.227-.268-.4,0-1.16-.027-1.4-.027-.162,0-.23-.036-.23-.1,0-.264,1.322-1.188,1.322-1.418m6.44,6.275c-2.314,0-3.831-1.16-3.831-1.75a.462.462,0,0,1,.46-.5c.726,0,2.311,1.121,2.846,1.121.13,0,.23-.058.23-.264,0-.592-.561-1.581-.561-2.081,0-.128.1-.225.3-.225.891,0,2.214.366,2.913.366a.255.255,0,0,0,.292-.268c0-.726-2.148-2.149-2.148-2.577,0-.394,2.671-.992,2.671-1.614,0-.664-3.628-.2-3.628-.83,0-.46.691-1.254.691-1.617,0-.165-.13-.232-.363-.232a26.044,26.044,0,0,1-2.542.626c-.33,0-.729-.066-.729-.527,0-.76,1.29-1.585,3.306-1.585,3.264,0,5.212,2.25,5.212,6.01,0,4.762-3.33,5.947-5.115,5.947" transform="translate(-84.694)" fill="#fff"/>
    <path id="Path_862" data-name="Path 862" d="M102.593,167.521a1.505,1.505,0,0,1-.362.962,2.455,2.455,0,0,0-1.851-.995c-3.4,0-2.113,4.923-5.741,4.923a16.876,16.876,0,0,1-2.217-.2c-.23,0-.363.106-.363.3,0,.859,1.225,2.972,4.623,2.972s6.677-2.078,6.677-4.658a3.434,3.434,0,0,0-.3-1.352.971.971,0,0,1,.759-.331c.529,0,.829.6,1.325.6a.907.907,0,0,0,.924-.93,1.012,1.012,0,0,0-.626-.927,1.138,1.138,0,0,0,.46-.892,1.046,1.046,0,0,0-1.057-1.083.949.949,0,0,0-.729.321c-.059-.587-.393-1.151-1.021-1.151a.85.85,0,0,0-.862.927c0,.525.362.956.362,1.514" transform="translate(-53.921 -96.691)" fill="#fff"/>
    <path id="Path_863" data-name="Path 863" d="M79.616,159.254c-.992,0-2.477-1.063-2.477-1.653a.8.8,0,0,1,.823-.764c.83,0,2.312,1.027,2.312,1.886,0,.233-.165.531-.658.531m-9.212-7.4c2.642.652,3.958,2.078,4.227,3.76a7.356,7.356,0,0,0,1.219,3.6,5.712,5.712,0,0,0,3.867,1.745c1.186,0,2.143-.39,2.143-1.482,0-1.184-1.62-3.864-3.994-3.864-.233,0-.528.035-.859.035a1.6,1.6,0,0,1-.992-.3c-.528-.461-.694-2.94-1.682-4.424a4.156,4.156,0,0,0-3.9-2.117c-1.154,0-2.441.629-2.441,1.55,0,.567.3.962,2.412,1.493" transform="translate(-39.824 -87.163)" fill="#fff"/>
    <path id="Path_864" data-name="Path 864" d="M98.325,115.468c0-1.482-3.073-1.514-3.073-3.76a5.151,5.151,0,0,1,1.086-2.544,3.592,3.592,0,0,0,2.482,3.171c2.934,1.086,3.332,2.738,3.332,4.491,0,2.97-2.081,6.668-7.429,6.668a7.521,7.521,0,0,1-7.368-7.063c0-.892.234-1.889.791-1.889.5,0,.664.4,1.06.8,1.485,1.484,3.1,1.88,5.451,1.88,2.11,0,3.666-.856,3.666-1.753m.13,2.376c-1.133.522-1.585.434-1.585,1.594,0,.428-.1.986-.1,1.284,0,.4.065.626.528.626,1.187,0,3.07-2.013,3.07-3.731,0-.461-.263-.661-.561-.661-.262,0-.561.531-1.351.888M87.92,101.173c0-2.117,5.018-3.238,5.018-5.844a4.269,4.269,0,0,0-.463-1.753c1.753.962,3.037,2.577,3.037,3.9,0,2.276-2.376,3.331-2.376,4.752,0,1.655,2.541,1.919,2.541,3.964,0,1.685-2.412,3.633-2.412,5.81a3.3,3.3,0,0,0,3.008,3.3,7.7,7.7,0,0,1-1.682.234c-3.338,0-6.771-2.742-6.771-6.017a5.623,5.623,0,0,1,1.748-4.055,4.749,4.749,0,0,0,2.444,1.318c.531,0,.764-.263.764-.658,0-1.225-4.855-2.345-4.855-4.953" transform="translate(-51.166 -54.809)" fill="#fff"/>
    <path id="Path_865" data-name="Path 865" d="M42.45,143.461a2.159,2.159,0,0,0,2.385,1.848,2.609,2.609,0,0,0,1.086-.331,2.03,2.03,0,0,0,2.349,1.579,2.086,2.086,0,0,0,1.909-2.335,2.217,2.217,0,0,0-.2-.761s.165-.021.284-.044a2.195,2.195,0,0,0,1.9-2.336,2.1,2.1,0,0,0-3.407-1.486,2.219,2.219,0,0,0-2.494-1.641,2.134,2.134,0,0,0-1.795,2.4,2.06,2.06,0,0,0,.165.658s-.195.027-.327.047a2.229,2.229,0,0,0-1.857,2.4m6.172-1.3a1.252,1.252,0,1,1-1.39-1.107,1.256,1.256,0,0,1,1.39,1.107" transform="translate(-24.855 -80.784)" fill="#fff"/>
  </g>
</svg>
